<svg width="16" height="16" viewBox="0 0 16 16" fill="none" xmlns="http://www.w3.org/2000/svg">
<mask id="path-1-inside-1_9_767" fill="white">
<path d="M6.647 3.71799L7.0485 4.83299C7.4945 6.07049 8.469 7.04499 9.7065 7.49099L10.8215 7.89249C10.922 7.92899 10.922 8.07149 10.8215 8.10749L9.7065 8.50899C8.469 8.95499 7.4945 9.92949 7.0485 11.167L6.647 12.282C6.6105 12.3825 6.468 12.3825 6.432 12.282L6.0305 11.167C5.5845 9.92949 4.61 8.95499 3.3725 8.50899L2.2575 8.10749C2.157 8.07099 2.157 7.92849 2.2575 7.89249L3.3725 7.49099C4.61 7.04499 5.5845 6.07049 6.0305 4.83299L6.432 3.71799C6.468 3.61699 6.6105 3.61699 6.647 3.71799Z"/>
</mask>
<g clip-path="url(#paint0_diamond_9_767_clip_path)" data-figma-skip-parse="true"><g transform="matrix(-0.00580567 0.00871512 -0.00928893 -0.0133543 7.9878 3.64224)"><rect x="0" y="0" width="1142.87" height="570.849" fill="url(#paint0_diamond_9_767)" opacity="1" shape-rendering="crispEdges"/><rect x="0" y="0" width="1142.87" height="570.849" transform="scale(1 -1)" fill="url(#paint0_diamond_9_767)" opacity="1" shape-rendering="crispEdges"/><rect x="0" y="0" width="1142.87" height="570.849" transform="scale(-1 1)" fill="url(#paint0_diamond_9_767)" opacity="1" shape-rendering="crispEdges"/><rect x="0" y="0" width="1142.87" height="570.849" transform="scale(-1)" fill="url(#paint0_diamond_9_767)" opacity="1" shape-rendering="crispEdges"/></g></g><path d="M6.647 3.71799L7.0485 4.83299C7.4945 6.07049 8.469 7.04499 9.7065 7.49099L10.8215 7.89249C10.922 7.92899 10.922 8.07149 10.8215 8.10749L9.7065 8.50899C8.469 8.95499 7.4945 9.92949 7.0485 11.167L6.647 12.282C6.6105 12.3825 6.468 12.3825 6.432 12.282L6.0305 11.167C5.5845 9.92949 4.61 8.95499 3.3725 8.50899L2.2575 8.10749C2.157 8.07099 2.157 7.92849 2.2575 7.89249L3.3725 7.49099C4.61 7.04499 5.5845 6.07049 6.0305 4.83299L6.432 3.71799C6.468 3.61699 6.6105 3.61699 6.647 3.71799Z" data-figma-gradient-fill="{&#34;type&#34;:&#34;GRADIENT_DIAMOND&#34;,&#34;stops&#34;:[{&#34;color&#34;:{&#34;r&#34;:0.30000001192092896,&#34;g&#34;:0.30000001192092896,&#34;b&#34;:0.30000001192092896,&#34;a&#34;:1.0},&#34;position&#34;:0.0},{&#34;color&#34;:{&#34;r&#34;:0.062745101749897003,&#34;g&#34;:0.062745101749897003,&#34;b&#34;:0.062745101749897003,&#34;a&#34;:1.0},&#34;position&#34;:1.0}],&#34;stopsVar&#34;:[{&#34;color&#34;:{&#34;r&#34;:0.30000001192092896,&#34;g&#34;:0.30000001192092896,&#34;b&#34;:0.30000001192092896,&#34;a&#34;:1.0},&#34;position&#34;:0.0},{&#34;color&#34;:{&#34;r&#34;:0.062745101749897003,&#34;g&#34;:0.062745101749897003,&#34;b&#34;:0.062745101749897003,&#34;a&#34;:1.0},&#34;position&#34;:1.0}],&#34;transform&#34;:{&#34;m00&#34;:-11.611343383789062,&#34;m01&#34;:-18.577850341796875,&#34;m02&#34;:23.08239746093750,&#34;m10&#34;:17.430246353149414,&#34;m11&#34;:-26.708587646484375,&#34;m12&#34;:8.2814130783081055},&#34;opacity&#34;:1.0,&#34;blendMode&#34;:&#34;NORMAL&#34;,&#34;visible&#34;:true}"/>
<g clip-path="url(#paint1_diamond_9_767_clip_path)" data-figma-skip-parse="true" mask="url(#path-1-inside-1_9_767)"><g transform="matrix(-0.00580567 0.00871512 -0.00928893 -0.0133543 7.9878 3.64224)"><rect x="0" y="0" width="1142.87" height="570.849" fill="url(#paint1_diamond_9_767)" opacity="1" shape-rendering="crispEdges"/><rect x="0" y="0" width="1142.87" height="570.849" transform="scale(1 -1)" fill="url(#paint1_diamond_9_767)" opacity="1" shape-rendering="crispEdges"/><rect x="0" y="0" width="1142.87" height="570.849" transform="scale(-1 1)" fill="url(#paint1_diamond_9_767)" opacity="1" shape-rendering="crispEdges"/><rect x="0" y="0" width="1142.87" height="570.849" transform="scale(-1)" fill="url(#paint1_diamond_9_767)" opacity="1" shape-rendering="crispEdges"/></g></g><path d="M6.647 3.71799L7.58786 3.3792L7.58747 3.37812L6.647 3.71799ZM7.0485 4.83299L6.10764 5.17179L6.10774 5.17205L7.0485 4.83299ZM9.7065 7.49099L9.36745 8.43176L9.36771 8.43185L9.7065 7.49099ZM10.8215 7.89249L11.1629 6.95256L11.1603 6.95163L10.8215 7.89249ZM10.8215 8.10749L10.4843 7.16607L10.4827 7.16663L10.8215 8.10749ZM9.7065 8.50899L9.36771 7.56813L9.36745 7.56823L9.7065 8.50899ZM7.0485 11.167L6.10774 10.8279L6.10764 10.8282L7.0485 11.167ZM6.647 12.282L7.58694 12.6234L7.58786 12.6208L6.647 12.282ZM6.432 12.282L7.37343 11.9448L7.37286 11.9432L6.432 12.282ZM6.0305 11.167L6.97136 10.8282L6.97127 10.8279L6.0305 11.167ZM3.3725 8.50899L3.71156 7.56823L3.7113 7.56813L3.3725 8.50899ZM2.2575 8.10749L1.91614 9.04743L1.91871 9.04835L2.2575 8.10749ZM2.2575 7.89249L2.59473 8.83392L2.5963 8.83335L2.2575 7.89249ZM3.3725 7.49099L3.7113 8.43185L3.71156 8.43176L3.3725 7.49099ZM6.0305 4.83299L6.97127 5.17205L6.97136 5.17179L6.0305 4.83299ZM6.432 3.71799L7.37287 4.05679L7.37396 4.05374L6.432 3.71799ZM6.647 3.71799L5.70614 4.05679L6.10764 5.17179L7.0485 4.83299L7.98936 4.4942L7.58786 3.3792L6.647 3.71799ZM7.0485 4.83299L6.10774 5.17205C6.65471 6.68971 7.84979 7.88479 9.36745 8.43176L9.7065 7.49099L10.0456 6.55023C9.08822 6.2052 8.3343 5.45128 7.98927 4.49394L7.0485 4.83299ZM9.7065 7.49099L9.36771 8.43185L10.4827 8.83335L10.8215 7.89249L11.1603 6.95163L10.0453 6.55013L9.7065 7.49099ZM10.8215 7.89249L10.4801 8.83242C9.70853 8.55219 9.695 7.44879 10.4843 7.16607L10.8215 8.10749L11.1587 9.04892C12.149 8.69419 12.1355 7.3058 11.1629 6.95256L10.8215 7.89249ZM10.8215 8.10749L10.4827 7.16663L9.36771 7.56813L9.7065 8.50899L10.0453 9.44985L11.1603 9.04835L10.8215 8.10749ZM9.7065 8.50899L9.36745 7.56823C7.84979 8.1152 6.65471 9.31028 6.10774 10.8279L7.0485 11.167L7.98927 11.506C8.3343 10.5487 9.08822 9.79479 10.0456 9.44976L9.7065 8.50899ZM7.0485 11.167L6.10764 10.8282L5.70614 11.9432L6.647 12.282L7.58786 12.6208L7.98936 11.5058L7.0485 11.167ZM6.647 12.282L5.70707 11.9406C5.98731 11.169 7.0907 11.1555 7.37343 11.9448L6.432 12.282L5.49058 12.6192C5.84531 13.6095 7.2337 13.596 7.58693 12.6234L6.647 12.282ZM6.432 12.282L7.37286 11.9432L6.97136 10.8282L6.0305 11.167L5.08964 11.5058L5.49114 12.6208L6.432 12.282ZM6.0305 11.167L6.97127 10.8279C6.4243 9.31028 5.22922 8.1152 3.71156 7.56823L3.3725 8.50899L3.03345 9.44976C3.99079 9.79479 4.74471 10.5487 5.08974 11.506L6.0305 11.167ZM3.3725 8.50899L3.7113 7.56813L2.5963 7.16663L2.2575 8.10749L1.91871 9.04835L3.03371 9.44985L3.3725 8.50899ZM2.2575 8.10749L2.59887 7.16756C3.37047 7.4478 3.384 8.55119 2.59473 8.83392L2.2575 7.89249L1.92028 6.95107C0.930004 7.30579 0.943535 8.69419 1.91614 9.04742L2.2575 8.10749ZM2.2575 7.89249L2.5963 8.83335L3.7113 8.43185L3.3725 7.49099L3.03371 6.55013L1.91871 6.95163L2.2575 7.89249ZM3.3725 7.49099L3.71156 8.43176C5.22922 7.88479 6.4243 6.68971 6.97127 5.17205L6.0305 4.83299L5.08974 4.49394C4.74471 5.45128 3.99079 6.2052 3.03345 6.55023L3.3725 7.49099ZM6.0305 4.83299L6.97136 5.17179L7.37286 4.05679L6.432 3.71799L5.49114 3.3792L5.08964 4.4942L6.0305 4.83299ZM6.432 3.71799L7.37396 4.05374C7.0921 4.8445 5.98591 4.83095 5.70653 4.05787L6.647 3.71799L7.58747 3.37812C7.23509 2.40304 5.84391 2.38949 5.49005 3.38225L6.432 3.71799Z" data-figma-gradient-fill="{&#34;type&#34;:&#34;GRADIENT_DIAMOND&#34;,&#34;stops&#34;:[{&#34;color&#34;:{&#34;r&#34;:0.30000001192092896,&#34;g&#34;:0.30000001192092896,&#34;b&#34;:0.30000001192092896,&#34;a&#34;:1.0},&#34;position&#34;:0.0},{&#34;color&#34;:{&#34;r&#34;:0.062745101749897003,&#34;g&#34;:0.062745101749897003,&#34;b&#34;:0.062745101749897003,&#34;a&#34;:1.0},&#34;position&#34;:1.0}],&#34;stopsVar&#34;:[{&#34;color&#34;:{&#34;r&#34;:0.30000001192092896,&#34;g&#34;:0.30000001192092896,&#34;b&#34;:0.30000001192092896,&#34;a&#34;:1.0},&#34;position&#34;:0.0},{&#34;color&#34;:{&#34;r&#34;:0.062745101749897003,&#34;g&#34;:0.062745101749897003,&#34;b&#34;:0.062745101749897003,&#34;a&#34;:1.0},&#34;position&#34;:1.0}],&#34;transform&#34;:{&#34;m00&#34;:-11.611343383789062,&#34;m01&#34;:-18.577850341796875,&#34;m02&#34;:23.08239746093750,&#34;m10&#34;:17.430246353149414,&#34;m11&#34;:-26.708587646484375,&#34;m12&#34;:8.2814130783081055},&#34;opacity&#34;:1.0,&#34;blendMode&#34;:&#34;NORMAL&#34;,&#34;visible&#34;:true}" mask="url(#path-1-inside-1_9_767)"/>
<mask id="path-3-inside-2_9_767" fill="white">
<path d="M11.666 1.0385L11.8695 1.603C12.0955 2.2295 12.589 2.723 13.2155 2.949L13.78 3.1525C13.831 3.171 13.831 3.243 13.78 3.2615L13.2155 3.465C12.589 3.691 12.0955 4.1845 11.8695 4.811L11.666 5.3755C11.6475 5.4265 11.5755 5.4265 11.557 5.3755L11.3535 4.811C11.1275 4.1845 10.634 3.691 10.0075 3.465L9.44297 3.2615C9.39197 3.243 9.39197 3.171 9.44297 3.1525L10.0075 2.949C10.634 2.723 11.1275 2.2295 11.3535 1.603L11.557 1.0385C11.5755 0.987003 11.648 0.987003 11.666 1.0385Z"/>
</mask>
<g clip-path="url(#paint2_diamond_9_767_clip_path)" data-figma-skip-parse="true"><g transform="matrix(-0.00294023 0.00441387 -0.00470429 -0.00676344 12.3449 0.999878)"><rect x="0" y="0" width="1282.11" height="660.139" fill="url(#paint2_diamond_9_767)" opacity="1" shape-rendering="crispEdges"/><rect x="0" y="0" width="1282.11" height="660.139" transform="scale(1 -1)" fill="url(#paint2_diamond_9_767)" opacity="1" shape-rendering="crispEdges"/><rect x="0" y="0" width="1282.11" height="660.139" transform="scale(-1 1)" fill="url(#paint2_diamond_9_767)" opacity="1" shape-rendering="crispEdges"/><rect x="0" y="0" width="1282.11" height="660.139" transform="scale(-1)" fill="url(#paint2_diamond_9_767)" opacity="1" shape-rendering="crispEdges"/></g></g><path d="M11.666 1.0385L11.8695 1.603C12.0955 2.2295 12.589 2.723 13.2155 2.949L13.78 3.1525C13.831 3.171 13.831 3.243 13.78 3.2615L13.2155 3.465C12.589 3.691 12.0955 4.1845 11.8695 4.811L11.666 5.3755C11.6475 5.4265 11.5755 5.4265 11.557 5.3755L11.3535 4.811C11.1275 4.1845 10.634 3.691 10.0075 3.465L9.44297 3.2615C9.39197 3.243 9.39197 3.171 9.44297 3.1525L10.0075 2.949C10.634 2.723 11.1275 2.2295 11.3535 1.603L11.557 1.0385C11.5755 0.987003 11.648 0.987003 11.666 1.0385Z" data-figma-gradient-fill="{&#34;type&#34;:&#34;GRADIENT_DIAMOND&#34;,&#34;stops&#34;:[{&#34;color&#34;:{&#34;r&#34;:0.30000001192092896,&#34;g&#34;:0.30000001192092896,&#34;b&#34;:0.30000001192092896,&#34;a&#34;:1.0},&#34;position&#34;:0.0},{&#34;color&#34;:{&#34;r&#34;:0.062745101749897003,&#34;g&#34;:0.062745101749897003,&#34;b&#34;:0.062745101749897003,&#34;a&#34;:1.0},&#34;position&#34;:1.0}],&#34;stopsVar&#34;:[{&#34;color&#34;:{&#34;r&#34;:0.30000001192092896,&#34;g&#34;:0.30000001192092896,&#34;b&#34;:0.30000001192092896,&#34;a&#34;:1.0},&#34;position&#34;:0.0},{&#34;color&#34;:{&#34;r&#34;:0.062745101749897003,&#34;g&#34;:0.062745101749897003,&#34;b&#34;:0.062745101749897003,&#34;a&#34;:1.0},&#34;position&#34;:1.0}],&#34;transform&#34;:{&#34;m00&#34;:-5.8804512023925781,&#34;m01&#34;:-9.4085702896118164,&#34;m02&#34;:19.989459991455078,&#34;m10&#34;:8.8277482986450195,&#34;m11&#34;:-13.526870727539062,&#34;m12&#34;:3.3494391441345215},&#34;opacity&#34;:1.0,&#34;blendMode&#34;:&#34;NORMAL&#34;,&#34;visible&#34;:true}"/>
<g clip-path="url(#paint3_diamond_9_767_clip_path)" data-figma-skip-parse="true" mask="url(#path-3-inside-2_9_767)"><g transform="matrix(-0.00294023 0.00441387 -0.00470429 -0.00676344 12.3449 0.999878)"><rect x="0" y="0" width="1282.11" height="660.139" fill="url(#paint3_diamond_9_767)" opacity="1" shape-rendering="crispEdges"/><rect x="0" y="0" width="1282.11" height="660.139" transform="scale(1 -1)" fill="url(#paint3_diamond_9_767)" opacity="1" shape-rendering="crispEdges"/><rect x="0" y="0" width="1282.11" height="660.139" transform="scale(-1 1)" fill="url(#paint3_diamond_9_767)" opacity="1" shape-rendering="crispEdges"/><rect x="0" y="0" width="1282.11" height="660.139" transform="scale(-1)" fill="url(#paint3_diamond_9_767)" opacity="1" shape-rendering="crispEdges"/></g></g><path d="M11.666 1.0385L10.7219 1.36846L10.7252 1.37764L11.666 1.0385ZM11.8695 1.603L10.9287 1.94214L10.9288 1.94233L11.8695 1.603ZM13.2155 2.949L12.8761 3.88967L12.8763 3.88974L13.2155 2.949ZM13.78 3.1525L14.121 2.21244L14.1191 2.21176L13.78 3.1525ZM13.78 3.2615L14.1191 4.20224L14.121 4.20157L13.78 3.2615ZM13.2155 3.465L12.8763 2.52426L12.8761 2.52434L13.2155 3.465ZM11.8695 4.811L10.9288 4.47167L10.9287 4.47187L11.8695 4.811ZM11.666 5.3755L12.606 5.71651L12.6067 5.71463L11.666 5.3755ZM11.557 5.3755L10.6162 5.71464L10.6169 5.71651L11.557 5.3755ZM11.3535 4.811L12.2942 4.47187L12.2941 4.47167L11.3535 4.811ZM10.0075 3.465L10.3468 2.52434L10.3466 2.52426L10.0075 3.465ZM9.44297 3.2615L9.10197 4.20157L9.10384 4.20224L9.44297 3.2615ZM9.44297 3.1525L9.10384 2.21176L9.10197 2.21244L9.44297 3.1525ZM10.0075 2.949L10.3466 3.88974L10.3468 3.88967L10.0075 2.949ZM11.3535 1.603L12.2941 1.94233L12.2942 1.94214L11.3535 1.603ZM11.557 1.0385L12.4977 1.37764L12.4981 1.37658L11.557 1.0385ZM11.666 1.0385L10.7252 1.37764L10.9287 1.94214L11.8695 1.603L12.8102 1.26387L12.6067 0.699371L11.666 1.0385ZM11.8695 1.603L10.9288 1.94233C11.2558 2.84877 11.9697 3.56269 12.8761 3.88967L13.2155 2.949L13.5548 2.00834C13.2082 1.88332 12.9352 1.61024 12.8101 1.26367L11.8695 1.603ZM13.2155 2.949L12.8763 3.88974L13.4408 4.09324L13.78 3.1525L14.1191 2.21176L13.5546 2.00826L13.2155 2.949ZM13.78 3.1525L13.439 4.09257C12.6113 3.79233 12.6113 2.62167 13.439 2.32144L13.78 3.2615L14.121 4.20157C15.0506 3.86433 15.0506 2.54967 14.121 2.21244L13.78 3.1525ZM13.78 3.2615L13.4408 2.32076L12.8763 2.52426L13.2155 3.465L13.5546 4.40574L14.1191 4.20224L13.78 3.2615ZM13.2155 3.465L12.8761 2.52434C11.9697 2.85132 11.2558 3.56523 10.9288 4.47167L11.8695 4.811L12.8101 5.15033C12.9352 4.80377 13.2082 4.53069 13.5548 4.40567L13.2155 3.465ZM11.8695 4.811L10.9287 4.47187L10.7252 5.03637L11.666 5.3755L12.6067 5.71463L12.8102 5.15013L11.8695 4.811ZM11.666 5.3755L10.7259 5.0345C11.0261 4.20684 12.1968 4.20684 12.497 5.0345L11.557 5.3755L10.6169 5.71651C10.9541 6.64617 12.2688 6.64617 12.606 5.71651L11.666 5.3755ZM11.557 5.3755L12.4977 5.03637L12.2942 4.47187L11.3535 4.811L10.4127 5.15013L10.6162 5.71463L11.557 5.3755ZM11.3535 4.811L12.2941 4.47167C11.9672 3.56523 11.2532 2.85132 10.3468 2.52434L10.0075 3.465L9.66814 4.40567C10.0147 4.53069 10.2878 4.80377 10.4128 5.15033L11.3535 4.811ZM10.0075 3.465L10.3466 2.52426L9.78211 2.32076L9.44297 3.2615L9.10384 4.20224L9.66834 4.40574L10.0075 3.465ZM9.44297 3.2615L9.78398 2.32144C10.6116 2.62167 10.6116 3.79233 9.78398 4.09257L9.44297 3.1525L9.10197 2.21244C8.17231 2.54967 8.17231 3.86433 9.10197 4.20157L9.44297 3.2615ZM9.44297 3.1525L9.78211 4.09324L10.3466 3.88974L10.0075 2.949L9.66834 2.00826L9.10384 2.21176L9.44297 3.1525ZM10.0075 2.949L10.3468 3.88967C11.2532 3.56269 11.9672 2.84877 12.2941 1.94233L11.3535 1.603L10.4128 1.26367C10.2878 1.61023 10.0147 1.88332 9.66814 2.00834L10.0075 2.949ZM11.3535 1.603L12.2942 1.94214L12.4977 1.37764L11.557 1.0385L10.6162 0.699371L10.4127 1.26387L11.3535 1.603ZM11.557 1.0385L12.4981 1.37658C12.2039 2.19548 11.0205 2.22252 10.722 1.36845L11.666 1.0385L12.61 0.708561C12.2755 -0.248514 10.947 -0.221475 10.6159 0.700431L11.557 1.0385Z" data-figma-gradient-fill="{&#34;type&#34;:&#34;GRADIENT_DIAMOND&#34;,&#34;stops&#34;:[{&#34;color&#34;:{&#34;r&#34;:0.30000001192092896,&#34;g&#34;:0.30000001192092896,&#34;b&#34;:0.30000001192092896,&#34;a&#34;:1.0},&#34;position&#34;:0.0},{&#34;color&#34;:{&#34;r&#34;:0.062745101749897003,&#34;g&#34;:0.062745101749897003,&#34;b&#34;:0.062745101749897003,&#34;a&#34;:1.0},&#34;position&#34;:1.0}],&#34;stopsVar&#34;:[{&#34;color&#34;:{&#34;r&#34;:0.30000001192092896,&#34;g&#34;:0.30000001192092896,&#34;b&#34;:0.30000001192092896,&#34;a&#34;:1.0},&#34;position&#34;:0.0},{&#34;color&#34;:{&#34;r&#34;:0.062745101749897003,&#34;g&#34;:0.062745101749897003,&#34;b&#34;:0.062745101749897003,&#34;a&#34;:1.0},&#34;position&#34;:1.0}],&#34;transform&#34;:{&#34;m00&#34;:-5.8804512023925781,&#34;m01&#34;:-9.4085702896118164,&#34;m02&#34;:19.989459991455078,&#34;m10&#34;:8.8277482986450195,&#34;m11&#34;:-13.526870727539062,&#34;m12&#34;:3.3494391441345215},&#34;opacity&#34;:1.0,&#34;blendMode&#34;:&#34;NORMAL&#34;,&#34;visible&#34;:true}" mask="url(#path-3-inside-2_9_767)"/>
<g clip-path="url(#paint4_diamond_9_767_clip_path)" data-figma-skip-parse="true"><g transform="matrix(-0.00294023 0.0044135 -0.00470429 -0.00676286 12.3449 10.5868)"><rect x="0" y="0" width="1282.12" height="660.145" fill="url(#paint4_diamond_9_767)" opacity="1" shape-rendering="crispEdges"/><rect x="0" y="0" width="1282.12" height="660.145" transform="scale(1 -1)" fill="url(#paint4_diamond_9_767)" opacity="1" shape-rendering="crispEdges"/><rect x="0" y="0" width="1282.12" height="660.145" transform="scale(-1 1)" fill="url(#paint4_diamond_9_767)" opacity="1" shape-rendering="crispEdges"/><rect x="0" y="0" width="1282.12" height="660.145" transform="scale(-1)" fill="url(#paint4_diamond_9_767)" opacity="1" shape-rendering="crispEdges"/></g></g><path d="M11.666 10.625L11.8695 11.1895C12.0955 11.816 12.589 12.3095 13.2155 12.5355L13.78 12.739C13.831 12.7575 13.831 12.8295 13.78 12.848L13.2155 13.0515C12.589 13.2775 12.0955 13.771 11.8695 14.3975L11.666 14.962C11.6475 15.013 11.5755 15.013 11.557 14.962L11.3535 14.3975C11.1275 13.771 10.634 13.2775 10.0075 13.0515L9.44297 12.848C9.39197 12.8295 9.39197 12.7575 9.44297 12.739L10.0075 12.5355C10.634 12.3095 11.1275 11.816 11.3535 11.1895L11.557 10.625C11.5755 10.574 11.648 10.574 11.666 10.625Z" data-figma-gradient-fill="{&#34;type&#34;:&#34;GRADIENT_DIAMOND&#34;,&#34;stops&#34;:[{&#34;color&#34;:{&#34;r&#34;:0.30000001192092896,&#34;g&#34;:0.30000001192092896,&#34;b&#34;:0.30000001192092896,&#34;a&#34;:1.0},&#34;position&#34;:0.0},{&#34;color&#34;:{&#34;r&#34;:0.062745101749897003,&#34;g&#34;:0.062745101749897003,&#34;b&#34;:0.062745101749897003,&#34;a&#34;:1.0},&#34;position&#34;:1.0}],&#34;stopsVar&#34;:[{&#34;color&#34;:{&#34;r&#34;:0.30000001192092896,&#34;g&#34;:0.30000001192092896,&#34;b&#34;:0.30000001192092896,&#34;a&#34;:1.0},&#34;position&#34;:0.0},{&#34;color&#34;:{&#34;r&#34;:0.062745101749897003,&#34;g&#34;:0.062745101749897003,&#34;b&#34;:0.062745101749897003,&#34;a&#34;:1.0},&#34;position&#34;:1.0}],&#34;transform&#34;:{&#34;m00&#34;:-5.8804512023925781,&#34;m01&#34;:-9.4085702896118164,&#34;m02&#34;:19.989459991455078,&#34;m10&#34;:8.8269977569580078,&#34;m11&#34;:-13.525720596313477,&#34;m12&#34;:12.936122894287109},&#34;opacity&#34;:1.0,&#34;blendMode&#34;:&#34;NORMAL&#34;,&#34;visible&#34;:true}"/>
<defs>
<clipPath id="paint0_diamond_9_767_clip_path"><path d="M6.647 3.71799L7.0485 4.83299C7.4945 6.07049 8.469 7.04499 9.7065 7.49099L10.8215 7.89249C10.922 7.92899 10.922 8.07149 10.8215 8.10749L9.7065 8.50899C8.469 8.95499 7.4945 9.92949 7.0485 11.167L6.647 12.282C6.6105 12.3825 6.468 12.3825 6.432 12.282L6.0305 11.167C5.5845 9.92949 4.61 8.95499 3.3725 8.50899L2.2575 8.10749C2.157 8.07099 2.157 7.92849 2.2575 7.89249L3.3725 7.49099C4.61 7.04499 5.5845 6.07049 6.0305 4.83299L6.432 3.71799C6.468 3.61699 6.6105 3.61699 6.647 3.71799Z"/></clipPath><clipPath id="paint1_diamond_9_767_clip_path"><path d="M6.647 3.71799L7.58786 3.3792L7.58747 3.37812L6.647 3.71799ZM7.0485 4.83299L6.10764 5.17179L6.10774 5.17205L7.0485 4.83299ZM9.7065 7.49099L9.36745 8.43176L9.36771 8.43185L9.7065 7.49099ZM10.8215 7.89249L11.1629 6.95256L11.1603 6.95163L10.8215 7.89249ZM10.8215 8.10749L10.4843 7.16607L10.4827 7.16663L10.8215 8.10749ZM9.7065 8.50899L9.36771 7.56813L9.36745 7.56823L9.7065 8.50899ZM7.0485 11.167L6.10774 10.8279L6.10764 10.8282L7.0485 11.167ZM6.647 12.282L7.58694 12.6234L7.58786 12.6208L6.647 12.282ZM6.432 12.282L7.37343 11.9448L7.37286 11.9432L6.432 12.282ZM6.0305 11.167L6.97136 10.8282L6.97127 10.8279L6.0305 11.167ZM3.3725 8.50899L3.71156 7.56823L3.7113 7.56813L3.3725 8.50899ZM2.2575 8.10749L1.91614 9.04743L1.91871 9.04835L2.2575 8.10749ZM2.2575 7.89249L2.59473 8.83392L2.5963 8.83335L2.2575 7.89249ZM3.3725 7.49099L3.7113 8.43185L3.71156 8.43176L3.3725 7.49099ZM6.0305 4.83299L6.97127 5.17205L6.97136 5.17179L6.0305 4.83299ZM6.432 3.71799L7.37287 4.05679L7.37396 4.05374L6.432 3.71799ZM6.647 3.71799L5.70614 4.05679L6.10764 5.17179L7.0485 4.83299L7.98936 4.4942L7.58786 3.3792L6.647 3.71799ZM7.0485 4.83299L6.10774 5.17205C6.65471 6.68971 7.84979 7.88479 9.36745 8.43176L9.7065 7.49099L10.0456 6.55023C9.08822 6.2052 8.3343 5.45128 7.98927 4.49394L7.0485 4.83299ZM9.7065 7.49099L9.36771 8.43185L10.4827 8.83335L10.8215 7.89249L11.1603 6.95163L10.0453 6.55013L9.7065 7.49099ZM10.8215 7.89249L10.4801 8.83242C9.70853 8.55219 9.695 7.44879 10.4843 7.16607L10.8215 8.10749L11.1587 9.04892C12.149 8.69419 12.1355 7.3058 11.1629 6.95256L10.8215 7.89249ZM10.8215 8.10749L10.4827 7.16663L9.36771 7.56813L9.7065 8.50899L10.0453 9.44985L11.1603 9.04835L10.8215 8.10749ZM9.7065 8.50899L9.36745 7.56823C7.84979 8.1152 6.65471 9.31028 6.10774 10.8279L7.0485 11.167L7.98927 11.506C8.3343 10.5487 9.08822 9.79479 10.0456 9.44976L9.7065 8.50899ZM7.0485 11.167L6.10764 10.8282L5.70614 11.9432L6.647 12.282L7.58786 12.6208L7.98936 11.5058L7.0485 11.167ZM6.647 12.282L5.70707 11.9406C5.98731 11.169 7.0907 11.1555 7.37343 11.9448L6.432 12.282L5.49058 12.6192C5.84531 13.6095 7.2337 13.596 7.58693 12.6234L6.647 12.282ZM6.432 12.282L7.37286 11.9432L6.97136 10.8282L6.0305 11.167L5.08964 11.5058L5.49114 12.6208L6.432 12.282ZM6.0305 11.167L6.97127 10.8279C6.4243 9.31028 5.22922 8.1152 3.71156 7.56823L3.3725 8.50899L3.03345 9.44976C3.99079 9.79479 4.74471 10.5487 5.08974 11.506L6.0305 11.167ZM3.3725 8.50899L3.7113 7.56813L2.5963 7.16663L2.2575 8.10749L1.91871 9.04835L3.03371 9.44985L3.3725 8.50899ZM2.2575 8.10749L2.59887 7.16756C3.37047 7.4478 3.384 8.55119 2.59473 8.83392L2.2575 7.89249L1.92028 6.95107C0.930004 7.30579 0.943535 8.69419 1.91614 9.04742L2.2575 8.10749ZM2.2575 7.89249L2.5963 8.83335L3.7113 8.43185L3.3725 7.49099L3.03371 6.55013L1.91871 6.95163L2.2575 7.89249ZM3.3725 7.49099L3.71156 8.43176C5.22922 7.88479 6.4243 6.68971 6.97127 5.17205L6.0305 4.83299L5.08974 4.49394C4.74471 5.45128 3.99079 6.2052 3.03345 6.55023L3.3725 7.49099ZM6.0305 4.83299L6.97136 5.17179L7.37286 4.05679L6.432 3.71799L5.49114 3.3792L5.08964 4.4942L6.0305 4.83299ZM6.432 3.71799L7.37396 4.05374C7.0921 4.8445 5.98591 4.83095 5.70653 4.05787L6.647 3.71799L7.58747 3.37812C7.23509 2.40304 5.84391 2.38949 5.49005 3.38225L6.432 3.71799Z" mask="url(#path-1-inside-1_9_767)"/></clipPath><clipPath id="paint2_diamond_9_767_clip_path"><path d="M11.666 1.0385L11.8695 1.603C12.0955 2.2295 12.589 2.723 13.2155 2.949L13.78 3.1525C13.831 3.171 13.831 3.243 13.78 3.2615L13.2155 3.465C12.589 3.691 12.0955 4.1845 11.8695 4.811L11.666 5.3755C11.6475 5.4265 11.5755 5.4265 11.557 5.3755L11.3535 4.811C11.1275 4.1845 10.634 3.691 10.0075 3.465L9.44297 3.2615C9.39197 3.243 9.39197 3.171 9.44297 3.1525L10.0075 2.949C10.634 2.723 11.1275 2.2295 11.3535 1.603L11.557 1.0385C11.5755 0.987003 11.648 0.987003 11.666 1.0385Z"/></clipPath><clipPath id="paint3_diamond_9_767_clip_path"><path d="M11.666 1.0385L10.7219 1.36846L10.7252 1.37764L11.666 1.0385ZM11.8695 1.603L10.9287 1.94214L10.9288 1.94233L11.8695 1.603ZM13.2155 2.949L12.8761 3.88967L12.8763 3.88974L13.2155 2.949ZM13.78 3.1525L14.121 2.21244L14.1191 2.21176L13.78 3.1525ZM13.78 3.2615L14.1191 4.20224L14.121 4.20157L13.78 3.2615ZM13.2155 3.465L12.8763 2.52426L12.8761 2.52434L13.2155 3.465ZM11.8695 4.811L10.9288 4.47167L10.9287 4.47187L11.8695 4.811ZM11.666 5.3755L12.606 5.71651L12.6067 5.71463L11.666 5.3755ZM11.557 5.3755L10.6162 5.71464L10.6169 5.71651L11.557 5.3755ZM11.3535 4.811L12.2942 4.47187L12.2941 4.47167L11.3535 4.811ZM10.0075 3.465L10.3468 2.52434L10.3466 2.52426L10.0075 3.465ZM9.44297 3.2615L9.10197 4.20157L9.10384 4.20224L9.44297 3.2615ZM9.44297 3.1525L9.10384 2.21176L9.10197 2.21244L9.44297 3.1525ZM10.0075 2.949L10.3466 3.88974L10.3468 3.88967L10.0075 2.949ZM11.3535 1.603L12.2941 1.94233L12.2942 1.94214L11.3535 1.603ZM11.557 1.0385L12.4977 1.37764L12.4981 1.37658L11.557 1.0385ZM11.666 1.0385L10.7252 1.37764L10.9287 1.94214L11.8695 1.603L12.8102 1.26387L12.6067 0.699371L11.666 1.0385ZM11.8695 1.603L10.9288 1.94233C11.2558 2.84877 11.9697 3.56269 12.8761 3.88967L13.2155 2.949L13.5548 2.00834C13.2082 1.88332 12.9352 1.61024 12.8101 1.26367L11.8695 1.603ZM13.2155 2.949L12.8763 3.88974L13.4408 4.09324L13.78 3.1525L14.1191 2.21176L13.5546 2.00826L13.2155 2.949ZM13.78 3.1525L13.439 4.09257C12.6113 3.79233 12.6113 2.62167 13.439 2.32144L13.78 3.2615L14.121 4.20157C15.0506 3.86433 15.0506 2.54967 14.121 2.21244L13.78 3.1525ZM13.78 3.2615L13.4408 2.32076L12.8763 2.52426L13.2155 3.465L13.5546 4.40574L14.1191 4.20224L13.78 3.2615ZM13.2155 3.465L12.8761 2.52434C11.9697 2.85132 11.2558 3.56523 10.9288 4.47167L11.8695 4.811L12.8101 5.15033C12.9352 4.80377 13.2082 4.53069 13.5548 4.40567L13.2155 3.465ZM11.8695 4.811L10.9287 4.47187L10.7252 5.03637L11.666 5.3755L12.6067 5.71463L12.8102 5.15013L11.8695 4.811ZM11.666 5.3755L10.7259 5.0345C11.0261 4.20684 12.1968 4.20684 12.497 5.0345L11.557 5.3755L10.6169 5.71651C10.9541 6.64617 12.2688 6.64617 12.606 5.71651L11.666 5.3755ZM11.557 5.3755L12.4977 5.03637L12.2942 4.47187L11.3535 4.811L10.4127 5.15013L10.6162 5.71463L11.557 5.3755ZM11.3535 4.811L12.2941 4.47167C11.9672 3.56523 11.2532 2.85132 10.3468 2.52434L10.0075 3.465L9.66814 4.40567C10.0147 4.53069 10.2878 4.80377 10.4128 5.15033L11.3535 4.811ZM10.0075 3.465L10.3466 2.52426L9.78211 2.32076L9.44297 3.2615L9.10384 4.20224L9.66834 4.40574L10.0075 3.465ZM9.44297 3.2615L9.78398 2.32144C10.6116 2.62167 10.6116 3.79233 9.78398 4.09257L9.44297 3.1525L9.10197 2.21244C8.17231 2.54967 8.17231 3.86433 9.10197 4.20157L9.44297 3.2615ZM9.44297 3.1525L9.78211 4.09324L10.3466 3.88974L10.0075 2.949L9.66834 2.00826L9.10384 2.21176L9.44297 3.1525ZM10.0075 2.949L10.3468 3.88967C11.2532 3.56269 11.9672 2.84877 12.2941 1.94233L11.3535 1.603L10.4128 1.26367C10.2878 1.61023 10.0147 1.88332 9.66814 2.00834L10.0075 2.949ZM11.3535 1.603L12.2942 1.94214L12.4977 1.37764L11.557 1.0385L10.6162 0.699371L10.4127 1.26387L11.3535 1.603ZM11.557 1.0385L12.4981 1.37658C12.2039 2.19548 11.0205 2.22252 10.722 1.36845L11.666 1.0385L12.61 0.708561C12.2755 -0.248514 10.947 -0.221475 10.6159 0.700431L11.557 1.0385Z" mask="url(#path-3-inside-2_9_767)"/></clipPath><clipPath id="paint4_diamond_9_767_clip_path"><path d="M11.666 10.625L11.8695 11.1895C12.0955 11.816 12.589 12.3095 13.2155 12.5355L13.78 12.739C13.831 12.7575 13.831 12.8295 13.78 12.848L13.2155 13.0515C12.589 13.2775 12.0955 13.771 11.8695 14.3975L11.666 14.962C11.6475 15.013 11.5755 15.013 11.557 14.962L11.3535 14.3975C11.1275 13.771 10.634 13.2775 10.0075 13.0515L9.44297 12.848C9.39197 12.8295 9.39197 12.7575 9.44297 12.739L10.0075 12.5355C10.634 12.3095 11.1275 11.816 11.3535 11.1895L11.557 10.625C11.5755 10.574 11.648 10.574 11.666 10.625Z"/></clipPath><linearGradient id="paint0_diamond_9_767" x1="0" y1="0" x2="500" y2="500" gradientUnits="userSpaceOnUse">
<stop stop-color="#4D4D4D"/>
<stop offset="1" stop-color="#101010"/>
</linearGradient>
<linearGradient id="paint1_diamond_9_767" x1="0" y1="0" x2="500" y2="500" gradientUnits="userSpaceOnUse">
<stop stop-color="#4D4D4D"/>
<stop offset="1" stop-color="#101010"/>
</linearGradient>
<linearGradient id="paint2_diamond_9_767" x1="0" y1="0" x2="500" y2="500" gradientUnits="userSpaceOnUse">
<stop stop-color="#4D4D4D"/>
<stop offset="1" stop-color="#101010"/>
</linearGradient>
<linearGradient id="paint3_diamond_9_767" x1="0" y1="0" x2="500" y2="500" gradientUnits="userSpaceOnUse">
<stop stop-color="#4D4D4D"/>
<stop offset="1" stop-color="#101010"/>
</linearGradient>
<linearGradient id="paint4_diamond_9_767" x1="0" y1="0" x2="500" y2="500" gradientUnits="userSpaceOnUse">
<stop stop-color="#4D4D4D"/>
<stop offset="1" stop-color="#101010"/>
</linearGradient>
</defs>
</svg>
