<svg width="20" height="20" viewBox="0 0 20 20" fill="none" xmlns="http://www.w3.org/2000/svg">
<path d="M11.85 18.025C10.8667 18.025 9.475 17.3333 8.375 14.025L7.775 12.225L5.975 11.625C2.675 10.525 1.98334 9.13333 1.98334 8.15C1.98334 7.175 2.675 5.775 5.975 4.66667L13.05 2.30833C14.8167 1.71666 16.2917 1.89166 17.2 2.79166C18.1083 3.69166 18.2833 5.175 17.6917 6.94167L15.3333 14.0167C14.225 17.3333 12.8333 18.025 11.85 18.025ZM6.36667 5.85833C4.05 6.63333 3.225 7.55 3.225 8.15C3.225 8.75 4.05 9.66667 6.36667 10.4333L8.46667 11.1333C8.65 11.1917 8.8 11.3417 8.85834 11.525L9.55834 13.625C10.325 15.9417 11.25 16.7667 11.85 16.7667C12.45 16.7667 13.3667 15.9417 14.1417 13.625L16.5 6.55C16.925 5.26667 16.85 4.21667 16.3083 3.675C15.7667 3.13333 14.7167 3.06667 13.4417 3.49167L6.36667 5.85833Z" fill="#718AB1"/>
<path d="M8.42503 12C8.26669 12 8.10836 11.9417 7.98336 11.8167C7.86713 11.6991 7.80194 11.5404 7.80194 11.375C7.80194 11.2096 7.86713 11.051 7.98336 10.9333L10.9667 7.94167C11.2084 7.70001 11.6084 7.70001 11.85 7.94167C12.0917 8.18334 12.0917 8.58334 11.85 8.82501L8.86669 11.8167C8.75003 11.9417 8.58336 12 8.42503 12Z" fill="#718AB1"/>
</svg>
